	.include "MPlayDef.s"

	.equ	zCamptown_grp, voicegroup114
	.equ	zCamptown_pri, 0
	.equ	zCamptown_rev, 0
	.equ	zCamptown_mvl, 127
	.equ	zCamptown_key, 0
	.equ	zCamptown_tbs, 1
	.equ	zCamptown_exg, 0
	.equ	zCamptown_cmp, 1

	.section .rodata
	.global	zCamptown
	.align	2

@**************** Track 1 (Midi-Chn.1) ****************@

zCamptown_1:
	.byte	KEYSH , zCamptown_key+0
@ 000   ----------------------------------------
	.byte	TEMPO , 100*zCamptown_tbs/2
	.byte		VOICE , 40
	.byte		VOL   , 100*zCamptown_mvl/mxv
	.byte		PAN   , c_v+0
	.byte	W48
@ 001   ----------------------------------------
	.byte	W48
@ 002   ----------------------------------------
	.byte	W48
@ 003   ----------------------------------------
	.byte	W48
@ 004   ----------------------------------------
	.byte	W48
@ 005   ----------------------------------------
	.byte	W48
@ 006   ----------------------------------------
	.byte	W48
@ 007   ----------------------------------------
	.byte	W36
zCamptown_1_B1:
	.byte		N11   , An3 , v112
	.byte	W12
@ 008   ----------------------------------------
zCamptown_1_008:
	.byte		N11   , An3 , v112
	.byte	W12
	.byte		N11   
	.byte	W12
	.byte		        Fs3 
	.byte	W12
	.byte		        An3 
	.byte	W12
	.byte	PEND
@ 009   ----------------------------------------
zCamptown_1_009:
	.byte		N11   , Bn3 , v112
	.byte	W12
	.byte		        An3 
	.byte	W12
	.byte		        Fs3 
	.byte	W24
	.byte	PEND
@ 010   ----------------------------------------
zCamptown_1_010:
	.byte		N11   , Fs3 , v112
	.byte	W12
	.byte		N32   , En3 
	.byte	W36
	.byte	PEND
@ 011   ----------------------------------------
zCamptown_1_011:
	.byte		N11   , Fs3 , v112
	.byte	W12
	.byte		N23   , En3 
	.byte	W24
	.byte		N11   , An3 
	.byte	W12
	.byte	PEND
@ 012   ----------------------------------------
	.byte	PATT
	 .word	zCamptown_1_008
@ 013   ----------------------------------------
	.byte	PATT
	 .word	zCamptown_1_009
@ 014   ----------------------------------------
zCamptown_1_014:
	.byte		N23   , En3 , v112
	.byte	W24
	.byte		N11   , Fs3 
	.byte	W12
	.byte		        En3 
	.byte	W12
	.byte	PEND
@ 015   ----------------------------------------
zCamptown_1_015:
	.byte		N23   , Dn3 , v112
	.byte	W36
	.byte		N11   , An3 
	.byte	W12
	.byte	PEND
@ 016   ----------------------------------------
	.byte	PATT
	 .word	zCamptown_1_008
@ 017   ----------------------------------------
	.byte	PATT
	 .word	zCamptown_1_009
@ 018   ----------------------------------------
	.byte	PATT
	 .word	zCamptown_1_010
@ 019   ----------------------------------------
	.byte	PATT
	 .word	zCamptown_1_011
@ 020   ----------------------------------------
zCamptown_1_020:
	.byte		N11   , An3 , v112
	.byte	W12
	.byte		N11   
	.byte	W12
	.byte		        Fs3 
	.byte	W12
	.byte		N05   , An3 
	.byte	W06
	.byte		N05   
	.byte	W06
	.byte	PEND
@ 021   ----------------------------------------
zCamptown_1_021:
	.byte		N05   , Bn3 , v112
	.byte	W06
	.byte		N05   
	.byte	W06
	.byte		        An3 
	.byte	W06
	.byte		N05   
	.byte	W06
	.byte		N11   , Fs3 
	.byte	W24
	.byte	PEND
@ 022   ----------------------------------------
	.byte	PATT
	 .word	zCamptown_1_014
@ 023   ----------------------------------------
	.byte		N32   , Dn3 , v112
	.byte	W48
@ 024   ----------------------------------------
zCamptown_1_024:
	.byte		N17   , Dn3 , v112
	.byte	W18
	.byte		N05   
	.byte	W06
	.byte		N11   , Fs3 
	.byte	W12
	.byte		        An3 
	.byte	W12
	.byte	PEND
@ 025   ----------------------------------------
	.byte		N32   , Dn4 
	.byte	W48
@ 026   ----------------------------------------
zCamptown_1_026:
	.byte		N17   , Bn3 , v112
	.byte	W18
	.byte		N05   
	.byte	W06
	.byte		N11   , Dn4 
	.byte	W12
	.byte		        Bn3 
	.byte	W12
	.byte	PEND
@ 027   ----------------------------------------
zCamptown_1_027:
	.byte		N32   , An3 , v112
	.byte	W36
	.byte		N05   , Fs3 
	.byte	W06
	.byte		        Gn3 
	.byte	W06
	.byte	PEND
@ 028   ----------------------------------------
zCamptown_1_028:
	.byte		N11   , An3 , v112
	.byte	W12
	.byte		N11   
	.byte	W12
	.byte		N05   , Fs3 
	.byte	W06
	.byte		N05   
	.byte	W06
	.byte		        An3 
	.byte	W06
	.byte		N05   
	.byte	W06
	.byte	PEND
@ 029   ----------------------------------------
zCamptown_1_029:
	.byte		N11   , Bn3 , v112
	.byte	W12
	.byte		        An3 
	.byte	W12
	.byte		N23   , Fs3 
	.byte	W24
	.byte	PEND
@ 030   ----------------------------------------
zCamptown_1_030:
	.byte		N11   , En3 , v112
	.byte	W12
	.byte		N05   , Fs3 
	.byte	W06
	.byte		        Gn3 
	.byte	W06
	.byte		        Fs3 
	.byte	W06
	.byte		N11   , En3 
	.byte	W12
	.byte		N05   
	.byte	W06
	.byte	PEND
@ 031   ----------------------------------------
	.byte		N44   , Dn3 
	.byte	W36
	.byte		VOICE , 105
	.byte		N11   , An3 
	.byte	W12
@ 032   ----------------------------------------
	.byte	PATT
	 .word	zCamptown_1_008
@ 033   ----------------------------------------
	.byte	PATT
	 .word	zCamptown_1_009
@ 034   ----------------------------------------
	.byte	PATT
	 .word	zCamptown_1_010
@ 035   ----------------------------------------
	.byte	PATT
	 .word	zCamptown_1_011
@ 036   ----------------------------------------
	.byte	PATT
	 .word	zCamptown_1_008
@ 037   ----------------------------------------
	.byte	PATT
	 .word	zCamptown_1_009
@ 038   ----------------------------------------
	.byte	PATT
	 .word	zCamptown_1_014
@ 039   ----------------------------------------
	.byte	PATT
	 .word	zCamptown_1_015
@ 040   ----------------------------------------
	.byte	PATT
	 .word	zCamptown_1_008
@ 041   ----------------------------------------
	.byte	PATT
	 .word	zCamptown_1_009
@ 042   ----------------------------------------
	.byte	PATT
	 .word	zCamptown_1_010
@ 043   ----------------------------------------
	.byte	PATT
	 .word	zCamptown_1_011
@ 044   ----------------------------------------
	.byte	PATT
	 .word	zCamptown_1_020
@ 045   ----------------------------------------
	.byte	PATT
	 .word	zCamptown_1_021
@ 046   ----------------------------------------
	.byte	PATT
	 .word	zCamptown_1_014
@ 047   ----------------------------------------
	.byte		N32   , Dn3 , v112
	.byte	W48
@ 048   ----------------------------------------
	.byte	PATT
	 .word	zCamptown_1_024
@ 049   ----------------------------------------
	.byte		N32   , Dn4 , v112
	.byte	W48
@ 050   ----------------------------------------
	.byte	PATT
	 .word	zCamptown_1_026
@ 051   ----------------------------------------
	.byte	PATT
	 .word	zCamptown_1_027
@ 052   ----------------------------------------
	.byte	PATT
	 .word	zCamptown_1_028
@ 053   ----------------------------------------
	.byte	PATT
	 .word	zCamptown_1_029
@ 054   ----------------------------------------
	.byte	PATT
	 .word	zCamptown_1_030
@ 055   ----------------------------------------
	.byte		N44   , Dn3 , v112
	.byte	W48
@ 056   ----------------------------------------
	.byte	W48
@ 057   ----------------------------------------
	.byte	W48
@ 058   ----------------------------------------
	.byte	W48
@ 059   ----------------------------------------
	.byte	W48
@ 060   ----------------------------------------
	.byte	W48
@ 061   ----------------------------------------
	.byte	W48
@ 062   ----------------------------------------
	.byte	W48
@ 063   ----------------------------------------
	.byte	W36
	.byte	GOTO
	 .word	zCamptown_1_B1
zCamptown_1_B2:
	.byte		VOICE , 22
	.byte		N11   , An3 , v120
	.byte	W12
@ 064   ----------------------------------------
zCamptown_1_064:
	.byte		N11   , An3 , v120
	.byte	W12
	.byte		N11   
	.byte	W12
	.byte		        Fs3 
	.byte	W12
	.byte		        An3 
	.byte	W12
	.byte	PEND
@ 065   ----------------------------------------
zCamptown_1_065:
	.byte		N11   , Bn3 , v120
	.byte	W12
	.byte		        An3 
	.byte	W12
	.byte		        Fs3 
	.byte	W24
	.byte	PEND
@ 066   ----------------------------------------
zCamptown_1_066:
	.byte		N11   , Fs3 , v120
	.byte	W12
	.byte		N32   , En3 
	.byte	W36
	.byte	PEND
@ 067   ----------------------------------------
zCamptown_1_067:
	.byte		N11   , Fs3 , v120
	.byte	W12
	.byte		N23   , En3 
	.byte	W24
	.byte		N11   , An3 
	.byte	W12
	.byte	PEND
@ 068   ----------------------------------------
	.byte	PATT
	 .word	zCamptown_1_064
@ 069   ----------------------------------------
	.byte	PATT
	 .word	zCamptown_1_065
@ 070   ----------------------------------------
zCamptown_1_070:
	.byte		N23   , En3 , v120
	.byte	W24
	.byte		N11   , Fs3 
	.byte	W12
	.byte		        En3 
	.byte	W12
	.byte	PEND
@ 071   ----------------------------------------
	.byte		N23   , Dn3 
	.byte	W36
	.byte		N11   , An3 
	.byte	W12
@ 072   ----------------------------------------
	.byte	PATT
	 .word	zCamptown_1_064
@ 073   ----------------------------------------
	.byte	PATT
	 .word	zCamptown_1_065
@ 074   ----------------------------------------
	.byte	PATT
	 .word	zCamptown_1_066
@ 075   ----------------------------------------
	.byte	PATT
	 .word	zCamptown_1_067
@ 076   ----------------------------------------
	.byte		N11   , An3 , v120
	.byte	W12
	.byte		N11   
	.byte	W12
	.byte		        Fs3 
	.byte	W12
	.byte		N05   , An3 
	.byte	W06
	.byte		N05   
	.byte	W06
@ 077   ----------------------------------------
	.byte		        Bn3 
	.byte	W06
	.byte		N05   
	.byte	W06
	.byte		        An3 
	.byte	W06
	.byte		N05   
	.byte	W06
	.byte		N11   , Fs3 
	.byte	W24
@ 078   ----------------------------------------
	.byte	PATT
	 .word	zCamptown_1_070
@ 079   ----------------------------------------
	.byte		N32   , Dn3 , v120
	.byte	W48
@ 080   ----------------------------------------
	.byte		N17   
	.byte	W18
	.byte		N05   
	.byte	W06
	.byte		N11   , Fs3 
	.byte	W12
	.byte		        An3 
	.byte	W12
@ 081   ----------------------------------------
	.byte		N32   , Dn4 
	.byte	W48
@ 082   ----------------------------------------
	.byte		N17   , Bn3 
	.byte	W18
	.byte		N05   
	.byte	W06
	.byte		N11   , Dn4 
	.byte	W12
	.byte		        Bn3 
	.byte	W12
@ 083   ----------------------------------------
	.byte		N32   , An3 
	.byte	W36
	.byte		N05   , Fs3 
	.byte	W06
	.byte		        Gn3 
	.byte	W06
@ 084   ----------------------------------------
	.byte		N11   , An3 
	.byte	W12
	.byte		N11   
	.byte	W12
	.byte		N05   , Fs3 
	.byte	W06
	.byte		N05   
	.byte	W06
	.byte		        An3 
	.byte	W06
	.byte		N05   
	.byte	W06
@ 085   ----------------------------------------
	.byte		N11   , Bn3 
	.byte	W12
	.byte		        An3 
	.byte	W12
	.byte		N23   , Fs3 
	.byte	W24
@ 086   ----------------------------------------
	.byte		N11   , En3 
	.byte	W12
	.byte		N05   , Fs3 
	.byte	W06
	.byte		        Gn3 
	.byte	W06
	.byte		        Fs3 
	.byte	W06
	.byte		N11   , En3 
	.byte	W12
	.byte		N05   
	.byte	W06
@ 087   ----------------------------------------
	.byte		N44   , Dn3 
	.byte	W30
	.byte		VOICE , 40
	.byte	W06
	.byte		N11   , An3 
	.byte	W12
@ 088   ----------------------------------------
	.byte	PATT
	 .word	zCamptown_1_008
@ 089   ----------------------------------------
	.byte	PATT
	 .word	zCamptown_1_009
@ 090   ----------------------------------------
	.byte	PATT
	 .word	zCamptown_1_010
@ 091   ----------------------------------------
	.byte	PATT
	 .word	zCamptown_1_011
@ 092   ----------------------------------------
	.byte	PATT
	 .word	zCamptown_1_008
@ 093   ----------------------------------------
	.byte	PATT
	 .word	zCamptown_1_009
@ 094   ----------------------------------------
	.byte	PATT
	 .word	zCamptown_1_014
@ 095   ----------------------------------------
	.byte	PATT
	 .word	zCamptown_1_015
@ 096   ----------------------------------------
	.byte	PATT
	 .word	zCamptown_1_008
@ 097   ----------------------------------------
	.byte	PATT
	 .word	zCamptown_1_009
@ 098   ----------------------------------------
	.byte	PATT
	 .word	zCamptown_1_010
@ 099   ----------------------------------------
	.byte	PATT
	 .word	zCamptown_1_011
@ 100   ----------------------------------------
	.byte	PATT
	 .word	zCamptown_1_020
@ 101   ----------------------------------------
	.byte	PATT
	 .word	zCamptown_1_021
@ 102   ----------------------------------------
	.byte	PATT
	 .word	zCamptown_1_014
@ 103   ----------------------------------------
	.byte		N32   , Dn3 , v112
	.byte	W48
@ 104   ----------------------------------------
	.byte	PATT
	 .word	zCamptown_1_024
@ 105   ----------------------------------------
	.byte		N32   , Dn4 , v112
	.byte	W48
@ 106   ----------------------------------------
	.byte	PATT
	 .word	zCamptown_1_026
@ 107   ----------------------------------------
	.byte	PATT
	 .word	zCamptown_1_027
@ 108   ----------------------------------------
	.byte	PATT
	 .word	zCamptown_1_028
@ 109   ----------------------------------------
	.byte	PATT
	 .word	zCamptown_1_029
@ 110   ----------------------------------------
	.byte	PATT
	 .word	zCamptown_1_030
@ 111   ----------------------------------------
	.byte		N44   , Dn3 , v112
	.byte	W48
@ 112   ----------------------------------------
	.byte	W48
@ 113   ----------------------------------------
	.byte	W48
@ 114   ----------------------------------------
	.byte	W48
@ 115   ----------------------------------------
	.byte	W48
@ 116   ----------------------------------------
	.byte	W48
@ 117   ----------------------------------------
	.byte	W48
@ 118   ----------------------------------------
	.byte	W48
@ 119   ----------------------------------------
	.byte	W44
	.byte	W03
	.byte	FINE

@**************** Track 2 (Midi-Chn.2) ****************@

zCamptown_2:
	.byte	KEYSH , zCamptown_key+0
@ 000   ----------------------------------------
	.byte		VOICE , 48
	.byte		VOL   , 100*zCamptown_mvl/mxv
	.byte		PAN   , c_v-30
	.byte	W48
@ 001   ----------------------------------------
	.byte	W48
@ 002   ----------------------------------------
	.byte	W48
@ 003   ----------------------------------------
	.byte	W48
@ 004   ----------------------------------------
	.byte	W48
@ 005   ----------------------------------------
	.byte	W48
@ 006   ----------------------------------------
	.byte	W48
@ 007   ----------------------------------------
	.byte	W36
zCamptown_2_B1:
	.byte	W12
@ 008   ----------------------------------------
	.byte	W48
@ 009   ----------------------------------------
	.byte	W48
@ 010   ----------------------------------------
	.byte	W48
@ 011   ----------------------------------------
	.byte	W48
@ 012   ----------------------------------------
	.byte	W48
@ 013   ----------------------------------------
	.byte	W48
@ 014   ----------------------------------------
	.byte	W48
@ 015   ----------------------------------------
	.byte	W48
@ 016   ----------------------------------------
	.byte	W48
@ 017   ----------------------------------------
	.byte	W48
@ 018   ----------------------------------------
	.byte	W48
@ 019   ----------------------------------------
	.byte	W48
@ 020   ----------------------------------------
	.byte	W48
@ 021   ----------------------------------------
	.byte	W48
@ 022   ----------------------------------------
	.byte	W48
@ 023   ----------------------------------------
	.byte	W48
@ 024   ----------------------------------------
zCamptown_2_024:
	.byte		N17   , Dn4 , v084
	.byte	W18
	.byte		N05   
	.byte	W06
	.byte		N11   
	.byte	W12
	.byte		N11   
	.byte	W12
	.byte	PEND
@ 025   ----------------------------------------
	.byte		N32   
	.byte	W48
@ 026   ----------------------------------------
	.byte	PATT
	 .word	zCamptown_2_024
@ 027   ----------------------------------------
zCamptown_2_027:
	.byte		N32   , Dn4 , v084
	.byte	W36
	.byte		N11   
	.byte	W12
	.byte	PEND
@ 028   ----------------------------------------
zCamptown_2_028:
	.byte		N11   , Dn4 , v084
	.byte	W12
	.byte		N11   
	.byte	W12
	.byte		N05   
	.byte	W06
	.byte		N05   
	.byte	W06
	.byte		N05   
	.byte	W06
	.byte		N05   
	.byte	W06
	.byte	PEND
@ 029   ----------------------------------------
zCamptown_2_029:
	.byte		N11   , Dn4 , v084
	.byte	W12
	.byte		N11   
	.byte	W12
	.byte		N23   
	.byte	W24
	.byte	PEND
@ 030   ----------------------------------------
zCamptown_2_030:
	.byte		N11   , En4 , v084
	.byte	W12
	.byte		N05   
	.byte	W06
	.byte		N05   
	.byte	W06
	.byte		        Cs4 
	.byte	W06
	.byte		N11   
	.byte	W12
	.byte		N05   
	.byte	W06
	.byte	PEND
@ 031   ----------------------------------------
	.byte		N44   , Dn4 
	.byte	W48
@ 032   ----------------------------------------
	.byte	W48
@ 033   ----------------------------------------
	.byte	W48
@ 034   ----------------------------------------
	.byte	W48
@ 035   ----------------------------------------
	.byte	W48
@ 036   ----------------------------------------
	.byte	W48
@ 037   ----------------------------------------
	.byte	W48
@ 038   ----------------------------------------
	.byte	W48
@ 039   ----------------------------------------
	.byte	W48
@ 040   ----------------------------------------
	.byte	W48
@ 041   ----------------------------------------
	.byte	W48
@ 042   ----------------------------------------
	.byte	W48
@ 043   ----------------------------------------
	.byte	W48
@ 044   ----------------------------------------
	.byte	W48
@ 045   ----------------------------------------
	.byte	W48
@ 046   ----------------------------------------
	.byte	W48
@ 047   ----------------------------------------
	.byte	W48
@ 048   ----------------------------------------
	.byte	PATT
	 .word	zCamptown_2_024
@ 049   ----------------------------------------
	.byte		N32   , Dn4 , v084
	.byte	W48
@ 050   ----------------------------------------
	.byte	PATT
	 .word	zCamptown_2_024
@ 051   ----------------------------------------
	.byte	PATT
	 .word	zCamptown_2_027
@ 052   ----------------------------------------
	.byte	PATT
	 .word	zCamptown_2_028
@ 053   ----------------------------------------
	.byte	PATT
	 .word	zCamptown_2_029
@ 054   ----------------------------------------
	.byte	PATT
	 .word	zCamptown_2_030
@ 055   ----------------------------------------
	.byte		N44   , Dn4 , v084
	.byte	W48
@ 056   ----------------------------------------
	.byte	W48
@ 057   ----------------------------------------
	.byte	W48
@ 058   ----------------------------------------
	.byte	W48
@ 059   ----------------------------------------
	.byte	W48
@ 060   ----------------------------------------
	.byte	W48
@ 061   ----------------------------------------
	.byte	W48
@ 062   ----------------------------------------
	.byte	W48
@ 063   ----------------------------------------
	.byte	W36
	.byte	GOTO
	 .word	zCamptown_2_B1
zCamptown_2_B2:
	.byte	W12
@ 064   ----------------------------------------
	.byte	W48
@ 065   ----------------------------------------
	.byte	W48
@ 066   ----------------------------------------
	.byte	W48
@ 067   ----------------------------------------
	.byte	W48
@ 068   ----------------------------------------
	.byte	W48
@ 069   ----------------------------------------
	.byte	W48
@ 070   ----------------------------------------
	.byte	W48
@ 071   ----------------------------------------
	.byte	W48
@ 072   ----------------------------------------
	.byte	W48
@ 073   ----------------------------------------
	.byte	W48
@ 074   ----------------------------------------
	.byte	W48
@ 075   ----------------------------------------
	.byte	W48
@ 076   ----------------------------------------
	.byte	W48
@ 077   ----------------------------------------
	.byte	W48
@ 078   ----------------------------------------
	.byte	W48
@ 079   ----------------------------------------
	.byte	W48
@ 080   ----------------------------------------
	.byte	PATT
	 .word	zCamptown_2_024
@ 081   ----------------------------------------
	.byte		N32   , Dn4 , v084
	.byte	W48
@ 082   ----------------------------------------
	.byte	PATT
	 .word	zCamptown_2_024
@ 083   ----------------------------------------
	.byte	PATT
	 .word	zCamptown_2_027
@ 084   ----------------------------------------
	.byte	PATT
	 .word	zCamptown_2_028
@ 085   ----------------------------------------
	.byte	PATT
	 .word	zCamptown_2_029
@ 086   ----------------------------------------
	.byte	PATT
	 .word	zCamptown_2_030
@ 087   ----------------------------------------
	.byte		N44   , Dn4 , v084
	.byte	W48
@ 088   ----------------------------------------
	.byte	W48
@ 089   ----------------------------------------
	.byte	W48
@ 090   ----------------------------------------
	.byte	W48
@ 091   ----------------------------------------
	.byte	W48
@ 092   ----------------------------------------
	.byte	W48
@ 093   ----------------------------------------
	.byte	W48
@ 094   ----------------------------------------
	.byte	W48
@ 095   ----------------------------------------
	.byte	W48
@ 096   ----------------------------------------
	.byte	W48
@ 097   ----------------------------------------
	.byte	W48
@ 098   ----------------------------------------
	.byte	W48
@ 099   ----------------------------------------
	.byte	W48
@ 100   ----------------------------------------
	.byte	W48
@ 101   ----------------------------------------
	.byte	W48
@ 102   ----------------------------------------
	.byte	W48
@ 103   ----------------------------------------
	.byte	W48
@ 104   ----------------------------------------
	.byte	PATT
	 .word	zCamptown_2_024
@ 105   ----------------------------------------
	.byte		N32   , Dn4 , v084
	.byte	W48
@ 106   ----------------------------------------
	.byte	PATT
	 .word	zCamptown_2_024
@ 107   ----------------------------------------
	.byte	PATT
	 .word	zCamptown_2_027
@ 108   ----------------------------------------
	.byte	PATT
	 .word	zCamptown_2_028
@ 109   ----------------------------------------
	.byte	PATT
	 .word	zCamptown_2_029
@ 110   ----------------------------------------
	.byte	PATT
	 .word	zCamptown_2_030
@ 111   ----------------------------------------
	.byte		N44   , Dn4 , v084
	.byte	W48
@ 112   ----------------------------------------
	.byte	W48
@ 113   ----------------------------------------
	.byte	W48
@ 114   ----------------------------------------
	.byte	W48
@ 115   ----------------------------------------
	.byte	W48
@ 116   ----------------------------------------
	.byte	W48
@ 117   ----------------------------------------
	.byte	W48
@ 118   ----------------------------------------
	.byte	W48
@ 119   ----------------------------------------
	.byte	W44
	.byte	W03
	.byte	FINE

@**************** Track 3 (Midi-Chn.3) ****************@

zCamptown_3:
	.byte	KEYSH , zCamptown_key+0
@ 000   ----------------------------------------
	.byte		VOICE , 48
	.byte		VOL   , 101*zCamptown_mvl/mxv
	.byte		PAN   , c_v+30
	.byte	W48
@ 001   ----------------------------------------
	.byte	W48
@ 002   ----------------------------------------
	.byte	W48
@ 003   ----------------------------------------
	.byte	W48
@ 004   ----------------------------------------
	.byte	W48
@ 005   ----------------------------------------
	.byte	W48
@ 006   ----------------------------------------
	.byte	W48
@ 007   ----------------------------------------
	.byte	W36
zCamptown_3_B1:
	.byte	W12
@ 008   ----------------------------------------
	.byte	W48
@ 009   ----------------------------------------
	.byte	W48
@ 010   ----------------------------------------
	.byte	W48
@ 011   ----------------------------------------
	.byte	W48
@ 012   ----------------------------------------
	.byte	W48
@ 013   ----------------------------------------
	.byte	W48
@ 014   ----------------------------------------
	.byte	W48
@ 015   ----------------------------------------
	.byte	W48
@ 016   ----------------------------------------
	.byte	W48
@ 017   ----------------------------------------
	.byte	W48
@ 018   ----------------------------------------
	.byte	W48
@ 019   ----------------------------------------
	.byte	W48
@ 020   ----------------------------------------
	.byte	W48
@ 021   ----------------------------------------
	.byte	W48
@ 022   ----------------------------------------
	.byte	W48
@ 023   ----------------------------------------
	.byte	W48
@ 024   ----------------------------------------
zCamptown_3_024:
	.byte		N17   , Dn3 , v084
	.byte	W18
	.byte		N05   
	.byte	W06
	.byte		N11   
	.byte	W12
	.byte		N11   
	.byte	W12
	.byte	PEND
@ 025   ----------------------------------------
	.byte		N32   , Fs3 
	.byte	W48
@ 026   ----------------------------------------
zCamptown_3_026:
	.byte		N17   , Gn3 , v084
	.byte	W18
	.byte		N05   
	.byte	W06
	.byte		N11   
	.byte	W12
	.byte		N11   
	.byte	W12
	.byte	PEND
@ 027   ----------------------------------------
zCamptown_3_027:
	.byte		N32   , Fs3 , v084
	.byte	W36
	.byte		N11   
	.byte	W12
	.byte	PEND
@ 028   ----------------------------------------
zCamptown_3_028:
	.byte		N11   , Fs3 , v084
	.byte	W12
	.byte		N11   
	.byte	W12
	.byte		N05   
	.byte	W06
	.byte		N05   
	.byte	W06
	.byte		N05   
	.byte	W06
	.byte		N05   
	.byte	W06
	.byte	PEND
@ 029   ----------------------------------------
zCamptown_3_029:
	.byte		N11   , Fs3 , v084
	.byte	W12
	.byte		N11   
	.byte	W12
	.byte		N23   , An3 
	.byte	W24
	.byte	PEND
@ 030   ----------------------------------------
zCamptown_3_030:
	.byte		N11   , Bn3 , v084
	.byte	W12
	.byte		N05   
	.byte	W06
	.byte		N05   
	.byte	W06
	.byte		        An3 
	.byte	W06
	.byte		N11   
	.byte	W12
	.byte		N05   , Gn3 
	.byte	W06
	.byte	PEND
@ 031   ----------------------------------------
	.byte		N44   , Fs3 
	.byte	W48
@ 032   ----------------------------------------
	.byte	W48
@ 033   ----------------------------------------
	.byte	W48
@ 034   ----------------------------------------
	.byte	W48
@ 035   ----------------------------------------
	.byte	W48
@ 036   ----------------------------------------
	.byte	W48
@ 037   ----------------------------------------
	.byte	W48
@ 038   ----------------------------------------
	.byte	W48
@ 039   ----------------------------------------
	.byte	W48
@ 040   ----------------------------------------
	.byte	W48
@ 041   ----------------------------------------
	.byte	W48
@ 042   ----------------------------------------
	.byte	W48
@ 043   ----------------------------------------
	.byte	W48
@ 044   ----------------------------------------
	.byte	W48
@ 045   ----------------------------------------
	.byte	W48
@ 046   ----------------------------------------
	.byte	W48
@ 047   ----------------------------------------
	.byte	W48
@ 048   ----------------------------------------
	.byte	PATT
	 .word	zCamptown_3_024
@ 049   ----------------------------------------
	.byte		N32   , Fs3 , v084
	.byte	W48
@ 050   ----------------------------------------
	.byte	PATT
	 .word	zCamptown_3_026
@ 051   ----------------------------------------
	.byte	PATT
	 .word	zCamptown_3_027
@ 052   ----------------------------------------
	.byte	PATT
	 .word	zCamptown_3_028
@ 053   ----------------------------------------
	.byte	PATT
	 .word	zCamptown_3_029
@ 054   ----------------------------------------
	.byte	PATT
	 .word	zCamptown_3_030
@ 055   ----------------------------------------
	.byte		N44   , Fs3 , v084
	.byte	W48
@ 056   ----------------------------------------
	.byte	W48
@ 057   ----------------------------------------
	.byte	W48
@ 058   ----------------------------------------
	.byte	W48
@ 059   ----------------------------------------
	.byte	W48
@ 060   ----------------------------------------
	.byte	W48
@ 061   ----------------------------------------
	.byte	W48
@ 062   ----------------------------------------
	.byte	W48
@ 063   ----------------------------------------
	.byte	W36
	.byte	GOTO
	 .word	zCamptown_3_B1
zCamptown_3_B2:
	.byte	W12
@ 064   ----------------------------------------
	.byte	W48
@ 065   ----------------------------------------
	.byte	W48
@ 066   ----------------------------------------
	.byte	W48
@ 067   ----------------------------------------
	.byte	W48
@ 068   ----------------------------------------
	.byte	W48
@ 069   ----------------------------------------
	.byte	W48
@ 070   ----------------------------------------
	.byte	W48
@ 071   ----------------------------------------
	.byte	W48
@ 072   ----------------------------------------
	.byte	W48
@ 073   ----------------------------------------
	.byte	W48
@ 074   ----------------------------------------
	.byte	W48
@ 075   ----------------------------------------
	.byte	W48
@ 076   ----------------------------------------
	.byte	W48
@ 077   ----------------------------------------
	.byte	W48
@ 078   ----------------------------------------
	.byte	W48
@ 079   ----------------------------------------
	.byte	W48
@ 080   ----------------------------------------
	.byte	PATT
	 .word	zCamptown_3_024
@ 081   ----------------------------------------
	.byte		N32   , Fs3 , v084
	.byte	W48
@ 082   ----------------------------------------
	.byte	PATT
	 .word	zCamptown_3_026
@ 083   ----------------------------------------
	.byte	PATT
	 .word	zCamptown_3_027
@ 084   ----------------------------------------
	.byte	PATT
	 .word	zCamptown_3_028
@ 085   ----------------------------------------
	.byte	PATT
	 .word	zCamptown_3_029
@ 086   ----------------------------------------
	.byte	PATT
	 .word	zCamptown_3_030
@ 087   ----------------------------------------
	.byte		N44   , Fs3 , v084
	.byte	W48
@ 088   ----------------------------------------
	.byte	W48
@ 089   ----------------------------------------
	.byte	W48
@ 090   ----------------------------------------
	.byte	W48
@ 091   ----------------------------------------
	.byte	W48
@ 092   ----------------------------------------
	.byte	W48
@ 093   ----------------------------------------
	.byte	W48
@ 094   ----------------------------------------
	.byte	W48
@ 095   ----------------------------------------
	.byte	W48
@ 096   ----------------------------------------
	.byte	W48
@ 097   ----------------------------------------
	.byte	W48
@ 098   ----------------------------------------
	.byte	W48
@ 099   ----------------------------------------
	.byte	W48
@ 100   ----------------------------------------
	.byte	W48
@ 101   ----------------------------------------
	.byte	W48
@ 102   ----------------------------------------
	.byte	W48
@ 103   ----------------------------------------
	.byte	W48
@ 104   ----------------------------------------
	.byte	PATT
	 .word	zCamptown_3_024
@ 105   ----------------------------------------
	.byte		N32   , Fs3 , v084
	.byte	W48
@ 106   ----------------------------------------
	.byte	PATT
	 .word	zCamptown_3_026
@ 107   ----------------------------------------
	.byte	PATT
	 .word	zCamptown_3_027
@ 108   ----------------------------------------
	.byte	PATT
	 .word	zCamptown_3_028
@ 109   ----------------------------------------
	.byte	PATT
	 .word	zCamptown_3_029
@ 110   ----------------------------------------
	.byte	PATT
	 .word	zCamptown_3_030
@ 111   ----------------------------------------
	.byte		N44   , Fs3 , v084
	.byte	W48
@ 112   ----------------------------------------
	.byte	W48
@ 113   ----------------------------------------
	.byte	W48
@ 114   ----------------------------------------
	.byte	W48
@ 115   ----------------------------------------
	.byte	W48
@ 116   ----------------------------------------
	.byte	W48
@ 117   ----------------------------------------
	.byte	W48
@ 118   ----------------------------------------
	.byte	W48
@ 119   ----------------------------------------
	.byte	W44
	.byte	W03
	.byte	FINE

@**************** Track 4 (Midi-Chn.4) ****************@

zCamptown_4:
	.byte	KEYSH , zCamptown_key+0
@ 000   ----------------------------------------
	.byte		VOICE , 48
	.byte		VOL   , 101*zCamptown_mvl/mxv
	.byte		PAN   , c_v+60
	.byte	W48
@ 001   ----------------------------------------
	.byte	W48
@ 002   ----------------------------------------
	.byte	W48
@ 003   ----------------------------------------
	.byte	W48
@ 004   ----------------------------------------
	.byte	W48
@ 005   ----------------------------------------
	.byte	W48
@ 006   ----------------------------------------
	.byte	W48
@ 007   ----------------------------------------
	.byte	W36
zCamptown_4_B1:
	.byte	W12
@ 008   ----------------------------------------
	.byte	W48
@ 009   ----------------------------------------
	.byte	W48
@ 010   ----------------------------------------
zCamptown_4_010:
	.byte		N11   , An3 , v076
	.byte	W12
	.byte		N28   , Cs3 
	.byte		N28   , Gn3 
	.byte	W36
	.byte	PEND
@ 011   ----------------------------------------
zCamptown_4_011:
	.byte		N11   , An3 , v076
	.byte	W12
	.byte		N23   , Cs3 
	.byte		N23   , Gn3 
	.byte	W36
	.byte	PEND
@ 012   ----------------------------------------
	.byte	W48
@ 013   ----------------------------------------
	.byte	W48
@ 014   ----------------------------------------
zCamptown_4_014:
	.byte		N11   , An3 , v076
	.byte	W12
	.byte		        Cs3 
	.byte		N11   , An3 
	.byte	W12
	.byte		N23   
	.byte	W24
	.byte	PEND
@ 015   ----------------------------------------
	.byte		N32   , Dn3 
	.byte		N32   , Fs3 
	.byte	W48
@ 016   ----------------------------------------
	.byte	W48
@ 017   ----------------------------------------
	.byte	W48
@ 018   ----------------------------------------
	.byte	PATT
	 .word	zCamptown_4_010
@ 019   ----------------------------------------
	.byte	PATT
	 .word	zCamptown_4_011
@ 020   ----------------------------------------
	.byte	W48
@ 021   ----------------------------------------
	.byte	W48
@ 022   ----------------------------------------
	.byte	PATT
	 .word	zCamptown_4_014
@ 023   ----------------------------------------
	.byte		N32   , Dn3 , v076
	.byte		N32   , Fs3 
	.byte	W48
@ 024   ----------------------------------------
zCamptown_4_024:
	.byte		N23   , Dn2 , v076
	.byte		N23   , Dn3 
	.byte	W24
	.byte		        Fs2 
	.byte		N23   , Dn3 
	.byte	W24
	.byte	PEND
@ 025   ----------------------------------------
	.byte		N32   , Dn2 
	.byte		N32   , Dn3 
	.byte	W48
@ 026   ----------------------------------------
	.byte	PATT
	 .word	zCamptown_4_024
@ 027   ----------------------------------------
	.byte		N32   , Dn2 , v076
	.byte		N32   , Dn3 
	.byte	W48
@ 028   ----------------------------------------
zCamptown_4_028:
	.byte		N23   , Fs2 , v076
	.byte		N23   , Dn3 
	.byte	W24
	.byte		        Dn2 
	.byte		N23   , Dn3 
	.byte	W24
	.byte	PEND
@ 029   ----------------------------------------
	.byte	PATT
	 .word	zCamptown_4_028
@ 030   ----------------------------------------
zCamptown_4_030:
	.byte		N23   , Gn2 , v076
	.byte		N23   , Gn3 
	.byte	W24
	.byte		        An2 
	.byte		N23   , An3 
	.byte	W24
	.byte	PEND
@ 031   ----------------------------------------
	.byte		N32   , Dn3 
	.byte		N32   , Dn4 
	.byte	W48
@ 032   ----------------------------------------
	.byte	W48
@ 033   ----------------------------------------
	.byte	W48
@ 034   ----------------------------------------
	.byte	PATT
	 .word	zCamptown_4_010
@ 035   ----------------------------------------
	.byte	PATT
	 .word	zCamptown_4_011
@ 036   ----------------------------------------
	.byte	W48
@ 037   ----------------------------------------
	.byte	W48
@ 038   ----------------------------------------
	.byte	PATT
	 .word	zCamptown_4_014
@ 039   ----------------------------------------
	.byte		N32   , Dn3 , v076
	.byte		N32   , Fs3 
	.byte	W48
@ 040   ----------------------------------------
	.byte	W48
@ 041   ----------------------------------------
	.byte	W48
@ 042   ----------------------------------------
	.byte	PATT
	 .word	zCamptown_4_010
@ 043   ----------------------------------------
	.byte	PATT
	 .word	zCamptown_4_011
@ 044   ----------------------------------------
	.byte	W48
@ 045   ----------------------------------------
	.byte	W48
@ 046   ----------------------------------------
	.byte	PATT
	 .word	zCamptown_4_014
@ 047   ----------------------------------------
	.byte		N32   , Dn3 , v076
	.byte		N32   , Fs3 
	.byte	W48
@ 048   ----------------------------------------
	.byte	PATT
	 .word	zCamptown_4_024
@ 049   ----------------------------------------
	.byte		N32   , Dn2 , v076
	.byte		N32   , Dn3 
	.byte	W48
@ 050   ----------------------------------------
	.byte	PATT
	 .word	zCamptown_4_024
@ 051   ----------------------------------------
	.byte		N32   , Dn2 , v076
	.byte		N32   , Dn3 
	.byte	W48
@ 052   ----------------------------------------
	.byte	PATT
	 .word	zCamptown_4_028
@ 053   ----------------------------------------
	.byte	PATT
	 .word	zCamptown_4_028
@ 054   ----------------------------------------
	.byte	PATT
	 .word	zCamptown_4_030
@ 055   ----------------------------------------
	.byte		N32   , Dn3 , v076
	.byte		N32   , Dn4 
	.byte	W48
@ 056   ----------------------------------------
zCamptown_4_056:
	.byte		N11   , Dn3 , v076
	.byte		N11   , Fs3 
	.byte	W12
	.byte		        An3 
	.byte	W12
	.byte		        Dn3 
	.byte		N11   , Fs3 
	.byte	W12
	.byte		        An3 
	.byte	W12
	.byte	PEND
@ 057   ----------------------------------------
	.byte	PATT
	 .word	zCamptown_4_056
@ 058   ----------------------------------------
zCamptown_4_058:
	.byte		N11   , Gn2 , v076
	.byte		N11   , Bn2 
	.byte	W12
	.byte		        En3 
	.byte	W12
	.byte		        Gs2 
	.byte		N11   , Bn2 
	.byte	W12
	.byte		        En3 
	.byte	W12
	.byte	PEND
@ 059   ----------------------------------------
zCamptown_4_059:
	.byte		N11   , An2 , v076
	.byte		N11   , Cs3 
	.byte	W12
	.byte		        En3 
	.byte	W12
	.byte		        An2 
	.byte		N11   , Cs3 
	.byte	W12
	.byte		        En3 
	.byte	W12
	.byte	PEND
@ 060   ----------------------------------------
	.byte	PATT
	 .word	zCamptown_4_056
@ 061   ----------------------------------------
	.byte	PATT
	 .word	zCamptown_4_056
@ 062   ----------------------------------------
zCamptown_4_062:
	.byte		N11   , An2 , v076
	.byte		N11   , Cs3 
	.byte		N11   , En3 
	.byte	W12
	.byte		        Gn3 
	.byte	W12
	.byte		        An2 
	.byte		N11   , Cs3 
	.byte		N11   , En3 
	.byte	W12
	.byte		        Gn3 
	.byte	W12
	.byte	PEND
@ 063   ----------------------------------------
	.byte		        Dn3 
	.byte		N11   , Fs3 
	.byte	W12
	.byte		        An3 
	.byte	W12
	.byte		        Dn3 
	.byte		N11   , Fs3 
	.byte	W12
	.byte	GOTO
	 .word	zCamptown_4_B1
zCamptown_4_B2:
	.byte	W12
@ 064   ----------------------------------------
	.byte	W48
@ 065   ----------------------------------------
	.byte	W48
@ 066   ----------------------------------------
	.byte	PATT
	 .word	zCamptown_4_010
@ 067   ----------------------------------------
	.byte	PATT
	 .word	zCamptown_4_011
@ 068   ----------------------------------------
	.byte	W48
@ 069   ----------------------------------------
	.byte	W48
@ 070   ----------------------------------------
	.byte	PATT
	 .word	zCamptown_4_014
@ 071   ----------------------------------------
	.byte		N32   , Dn3 , v076
	.byte		N32   , Fs3 
	.byte	W48
@ 072   ----------------------------------------
	.byte	W48
@ 073   ----------------------------------------
	.byte	W48
@ 074   ----------------------------------------
	.byte	PATT
	 .word	zCamptown_4_010
@ 075   ----------------------------------------
	.byte	PATT
	 .word	zCamptown_4_011
@ 076   ----------------------------------------
	.byte	W48
@ 077   ----------------------------------------
	.byte	W48
@ 078   ----------------------------------------
	.byte	PATT
	 .word	zCamptown_4_014
@ 079   ----------------------------------------
	.byte		N32   , Dn3 , v076
	.byte		N32   , Fs3 
	.byte	W48
@ 080   ----------------------------------------
	.byte	PATT
	 .word	zCamptown_4_024
@ 081   ----------------------------------------
	.byte		N32   , Dn2 , v076
	.byte		N32   , Dn3 
	.byte	W48
@ 082   ----------------------------------------
	.byte	PATT
	 .word	zCamptown_4_024
@ 083   ----------------------------------------
	.byte		N32   , Dn2 , v076
	.byte		N32   , Dn3 
	.byte	W48
@ 084   ----------------------------------------
	.byte	PATT
	 .word	zCamptown_4_028
@ 085   ----------------------------------------
	.byte	PATT
	 .word	zCamptown_4_028
@ 086   ----------------------------------------
	.byte	PATT
	 .word	zCamptown_4_030
@ 087   ----------------------------------------
	.byte		N32   , Dn3 , v076
	.byte		N32   , Dn4 
	.byte	W48
@ 088   ----------------------------------------
	.byte	W48
@ 089   ----------------------------------------
	.byte	W48
@ 090   ----------------------------------------
	.byte	PATT
	 .word	zCamptown_4_010
@ 091   ----------------------------------------
	.byte	PATT
	 .word	zCamptown_4_011
@ 092   ----------------------------------------
	.byte	W48
@ 093   ----------------------------------------
	.byte	W48
@ 094   ----------------------------------------
	.byte	PATT
	 .word	zCamptown_4_014
@ 095   ----------------------------------------
	.byte		N32   , Dn3 , v076
	.byte		N32   , Fs3 
	.byte	W48
@ 096   ----------------------------------------
	.byte	W48
@ 097   ----------------------------------------
	.byte	W48
@ 098   ----------------------------------------
	.byte	PATT
	 .word	zCamptown_4_010
@ 099   ----------------------------------------
	.byte	PATT
	 .word	zCamptown_4_011
@ 100   ----------------------------------------
	.byte	W48
@ 101   ----------------------------------------
	.byte	W48
@ 102   ----------------------------------------
	.byte	PATT
	 .word	zCamptown_4_014
@ 103   ----------------------------------------
	.byte		N32   , Dn3 , v076
	.byte		N32   , Fs3 
	.byte	W48
@ 104   ----------------------------------------
	.byte	PATT
	 .word	zCamptown_4_024
@ 105   ----------------------------------------
	.byte		N32   , Dn2 , v076
	.byte		N32   , Dn3 
	.byte	W48
@ 106   ----------------------------------------
	.byte	PATT
	 .word	zCamptown_4_024
@ 107   ----------------------------------------
	.byte		N32   , Dn2 , v076
	.byte		N32   , Dn3 
	.byte	W48
@ 108   ----------------------------------------
	.byte	PATT
	 .word	zCamptown_4_028
@ 109   ----------------------------------------
	.byte	PATT
	 .word	zCamptown_4_028
@ 110   ----------------------------------------
	.byte	PATT
	 .word	zCamptown_4_030
@ 111   ----------------------------------------
	.byte		N32   , Dn3 , v076
	.byte		N32   , Dn4 
	.byte	W48
@ 112   ----------------------------------------
	.byte	PATT
	 .word	zCamptown_4_056
@ 113   ----------------------------------------
	.byte	PATT
	 .word	zCamptown_4_056
@ 114   ----------------------------------------
	.byte	PATT
	 .word	zCamptown_4_058
@ 115   ----------------------------------------
	.byte	PATT
	 .word	zCamptown_4_059
@ 116   ----------------------------------------
	.byte	PATT
	 .word	zCamptown_4_056
@ 117   ----------------------------------------
	.byte	PATT
	 .word	zCamptown_4_056
@ 118   ----------------------------------------
	.byte	PATT
	 .word	zCamptown_4_062
@ 119   ----------------------------------------
	.byte		N11   , Dn3 , v076
	.byte		N11   , Fs3 
	.byte	W12
	.byte		        An3 
	.byte	W12
	.byte		N23   , Dn3 , v084
	.byte		N23   , Fs3 
	.byte	W23
	.byte	FINE

@**************** Track 5 (Midi-Chn.5) ****************@

zCamptown_5:
	.byte	KEYSH , zCamptown_key+0
@ 000   ----------------------------------------
	.byte		VOICE , 0
	.byte		VOL   , 100*zCamptown_mvl/mxv
	.byte		PAN   , c_v-50
	.byte		N11   , An4 , v104
	.byte	W12
	.byte		N11   
	.byte	W12
	.byte		N05   , Fs4 
	.byte	W06
	.byte		        Gn4 
	.byte	W06
	.byte		N11   , An4 
	.byte	W12
@ 001   ----------------------------------------
zCamptown_5_001:
	.byte		N11   , Bn4 , v104
	.byte	W12
	.byte		        An4 
	.byte	W12
	.byte		N17   , Fs4 
	.byte	W18
	.byte		N05   , Dn4 
	.byte	W06
	.byte	PEND
@ 002   ----------------------------------------
	.byte		N11   , Fs4 
	.byte	W12
	.byte		N11   
	.byte	W12
	.byte		N05   
	.byte	W06
	.byte		        En4 
	.byte	W06
	.byte		        Dn4 
	.byte	W06
	.byte		        En4 
	.byte	W06
@ 003   ----------------------------------------
zCamptown_5_003:
	.byte		N11   , Fs4 , v104
	.byte	W12
	.byte		N05   , En4 
	.byte	W06
	.byte		        Fs4 
	.byte	W06
	.byte		N11   , En4 
	.byte	W24
	.byte	PEND
@ 004   ----------------------------------------
zCamptown_5_004:
	.byte		N11   , An4 , v104
	.byte	W12
	.byte		N11   
	.byte	W12
	.byte		N05   , Fs4 
	.byte	W06
	.byte		        Gn4 
	.byte	W06
	.byte		N11   , An4 
	.byte	W12
	.byte	PEND
@ 005   ----------------------------------------
	.byte	PATT
	 .word	zCamptown_5_001
@ 006   ----------------------------------------
zCamptown_5_006:
	.byte		N05   , Fs4 , v104
	.byte	W06
	.byte		        En4 
	.byte	W06
	.byte		        Dn4 
	.byte	W06
	.byte		        En4 
	.byte	W06
	.byte		N11   , Fs4 
	.byte	W12
	.byte		        En4 
	.byte	W12
	.byte	PEND
@ 007   ----------------------------------------
	.byte		N32   , Dn4 
	.byte	W36
zCamptown_5_B1:
	.byte	W12
@ 008   ----------------------------------------
zCamptown_5_008:
	.byte	W12
	.byte		N11   , An2 , v096
	.byte		N11   , Dn3 
	.byte		N11   , Fs3 
	.byte	W12
	.byte		        An2 
	.byte		N11   , Dn3 
	.byte		N11   , Fs3 
	.byte	W12
	.byte		        An2 
	.byte		N11   , Dn3 
	.byte		N11   , Fs3 
	.byte	W12
	.byte	PEND
@ 009   ----------------------------------------
zCamptown_5_009:
	.byte	W12
	.byte		N11   , An2 , v096
	.byte		N11   , Dn3 
	.byte		N11   , Fs3 
	.byte	W36
	.byte	PEND
@ 010   ----------------------------------------
zCamptown_5_010:
	.byte		N11   , Fs4 , v104
	.byte	W12
	.byte		        En4 
	.byte	W12
	.byte		N05   , Fs4 
	.byte	W06
	.byte		        En4 
	.byte	W06
	.byte		        Dn4 
	.byte	W06
	.byte		        En4 
	.byte	W06
	.byte	PEND
@ 011   ----------------------------------------
	.byte	PATT
	 .word	zCamptown_5_003
@ 012   ----------------------------------------
	.byte	PATT
	 .word	zCamptown_5_008
@ 013   ----------------------------------------
	.byte	PATT
	 .word	zCamptown_5_009
@ 014   ----------------------------------------
	.byte	PATT
	 .word	zCamptown_5_006
@ 015   ----------------------------------------
	.byte		N32   , Dn4 , v104
	.byte	W48
@ 016   ----------------------------------------
	.byte	PATT
	 .word	zCamptown_5_008
@ 017   ----------------------------------------
	.byte	PATT
	 .word	zCamptown_5_009
@ 018   ----------------------------------------
zCamptown_5_018:
	.byte		N11   , Fs4 , v096
	.byte	W12
	.byte		        En4 
	.byte	W12
	.byte		N05   , Fs4 
	.byte	W06
	.byte		        En4 
	.byte	W06
	.byte		        Dn4 
	.byte	W06
	.byte		        En4 
	.byte	W06
	.byte	PEND
@ 019   ----------------------------------------
zCamptown_5_019:
	.byte		N11   , Fs4 , v096
	.byte	W12
	.byte		N05   , En4 
	.byte	W06
	.byte		        Fs4 
	.byte	W06
	.byte		N11   , En4 
	.byte	W24
	.byte	PEND
@ 020   ----------------------------------------
	.byte	PATT
	 .word	zCamptown_5_008
@ 021   ----------------------------------------
	.byte	PATT
	 .word	zCamptown_5_009
@ 022   ----------------------------------------
zCamptown_5_022:
	.byte		N05   , Fs4 , v096
	.byte	W06
	.byte		        En4 
	.byte	W06
	.byte		        Dn4 
	.byte	W06
	.byte		        En4 
	.byte	W06
	.byte		N11   , Fs4 
	.byte	W12
	.byte		        En4 
	.byte	W12
	.byte	PEND
@ 023   ----------------------------------------
	.byte		N32   , Dn4 
	.byte	W48
@ 024   ----------------------------------------
zCamptown_5_024:
	.byte		N23   , An2 , v096
	.byte		N23   , Dn3 
	.byte		N23   , Fs3 
	.byte	W24
	.byte		        An2 
	.byte		N23   , Dn3 
	.byte		N23   , Fs3 
	.byte	W24
	.byte	PEND
@ 025   ----------------------------------------
zCamptown_5_025:
	.byte		N32   , An2 , v096
	.byte		N32   , Dn3 
	.byte		N32   , Fs3 
	.byte	W48
	.byte	PEND
@ 026   ----------------------------------------
zCamptown_5_026:
	.byte		N23   , Bn2 , v096
	.byte		N23   , Dn3 
	.byte		N23   , Gn3 
	.byte	W24
	.byte		        Bn2 
	.byte		N23   , Dn3 
	.byte		N23   , Gn3 
	.byte	W24
	.byte	PEND
@ 027   ----------------------------------------
	.byte	PATT
	 .word	zCamptown_5_025
@ 028   ----------------------------------------
zCamptown_5_028:
	.byte	W12
	.byte		N11   , An2 , v096
	.byte		N11   , Dn3 
	.byte		N11   , Fs3 
	.byte	W24
	.byte		        An2 
	.byte		N11   , Dn3 
	.byte		N11   , Fs3 
	.byte	W12
	.byte	PEND
@ 029   ----------------------------------------
	.byte	PATT
	 .word	zCamptown_5_028
@ 030   ----------------------------------------
zCamptown_5_030:
	.byte	W12
	.byte		N11   , Gn2 , v096
	.byte		N11   , Bn2 
	.byte		N11   , En3 
	.byte	W24
	.byte		        Gn2 
	.byte		N11   , An2 
	.byte		N11   , Cs3 
	.byte		N11   , En3 
	.byte	W12
	.byte	PEND
@ 031   ----------------------------------------
zCamptown_5_031:
	.byte	W12
	.byte		N11   , Fs2 , v096
	.byte		N11   , An2 
	.byte		N11   , Dn3 
	.byte	W12
	.byte		        Fs2 
	.byte		N11   , An2 
	.byte		N11   , Dn3 
	.byte	W24
	.byte	PEND
@ 032   ----------------------------------------
	.byte	PATT
	 .word	zCamptown_5_008
@ 033   ----------------------------------------
	.byte	PATT
	 .word	zCamptown_5_009
@ 034   ----------------------------------------
	.byte	PATT
	 .word	zCamptown_5_018
@ 035   ----------------------------------------
	.byte	PATT
	 .word	zCamptown_5_019
@ 036   ----------------------------------------
	.byte	PATT
	 .word	zCamptown_5_008
@ 037   ----------------------------------------
	.byte	PATT
	 .word	zCamptown_5_009
@ 038   ----------------------------------------
	.byte	PATT
	 .word	zCamptown_5_022
@ 039   ----------------------------------------
	.byte		N32   , Dn4 , v096
	.byte	W48
@ 040   ----------------------------------------
	.byte	PATT
	 .word	zCamptown_5_008
@ 041   ----------------------------------------
	.byte	PATT
	 .word	zCamptown_5_009
@ 042   ----------------------------------------
	.byte	PATT
	 .word	zCamptown_5_018
@ 043   ----------------------------------------
	.byte	PATT
	 .word	zCamptown_5_019
@ 044   ----------------------------------------
	.byte	PATT
	 .word	zCamptown_5_008
@ 045   ----------------------------------------
	.byte	PATT
	 .word	zCamptown_5_009
@ 046   ----------------------------------------
	.byte	PATT
	 .word	zCamptown_5_022
@ 047   ----------------------------------------
	.byte		N32   , Dn4 , v096
	.byte	W48
@ 048   ----------------------------------------
	.byte	PATT
	 .word	zCamptown_5_024
@ 049   ----------------------------------------
	.byte	PATT
	 .word	zCamptown_5_025
@ 050   ----------------------------------------
	.byte	PATT
	 .word	zCamptown_5_026
@ 051   ----------------------------------------
	.byte	PATT
	 .word	zCamptown_5_025
@ 052   ----------------------------------------
	.byte	PATT
	 .word	zCamptown_5_028
@ 053   ----------------------------------------
	.byte	PATT
	 .word	zCamptown_5_028
@ 054   ----------------------------------------
	.byte	PATT
	 .word	zCamptown_5_030
@ 055   ----------------------------------------
	.byte	PATT
	 .word	zCamptown_5_031
@ 056   ----------------------------------------
	.byte	PATT
	 .word	zCamptown_5_004
@ 057   ----------------------------------------
	.byte	PATT
	 .word	zCamptown_5_001
@ 058   ----------------------------------------
	.byte	PATT
	 .word	zCamptown_5_010
@ 059   ----------------------------------------
	.byte	PATT
	 .word	zCamptown_5_003
@ 060   ----------------------------------------
	.byte	PATT
	 .word	zCamptown_5_004
@ 061   ----------------------------------------
	.byte	PATT
	 .word	zCamptown_5_001
@ 062   ----------------------------------------
	.byte	PATT
	 .word	zCamptown_5_006
@ 063   ----------------------------------------
	.byte		N32   , Dn4 , v104
	.byte	W36
	.byte	GOTO
	 .word	zCamptown_5_B1
zCamptown_5_B2:
	.byte	W12
@ 064   ----------------------------------------
	.byte	PATT
	 .word	zCamptown_5_008
@ 065   ----------------------------------------
	.byte	PATT
	 .word	zCamptown_5_009
@ 066   ----------------------------------------
	.byte	PATT
	 .word	zCamptown_5_018
@ 067   ----------------------------------------
	.byte	PATT
	 .word	zCamptown_5_019
@ 068   ----------------------------------------
	.byte	PATT
	 .word	zCamptown_5_008
@ 069   ----------------------------------------
	.byte	PATT
	 .word	zCamptown_5_009
@ 070   ----------------------------------------
	.byte	PATT
	 .word	zCamptown_5_022
@ 071   ----------------------------------------
	.byte		N32   , Dn4 , v096
	.byte	W48
@ 072   ----------------------------------------
	.byte	PATT
	 .word	zCamptown_5_008
@ 073   ----------------------------------------
	.byte	PATT
	 .word	zCamptown_5_009
@ 074   ----------------------------------------
	.byte	PATT
	 .word	zCamptown_5_018
@ 075   ----------------------------------------
	.byte	PATT
	 .word	zCamptown_5_019
@ 076   ----------------------------------------
	.byte	PATT
	 .word	zCamptown_5_008
@ 077   ----------------------------------------
	.byte	PATT
	 .word	zCamptown_5_009
@ 078   ----------------------------------------
	.byte	PATT
	 .word	zCamptown_5_022
@ 079   ----------------------------------------
	.byte		N32   , Dn4 , v096
	.byte	W48
@ 080   ----------------------------------------
	.byte	PATT
	 .word	zCamptown_5_024
@ 081   ----------------------------------------
	.byte	PATT
	 .word	zCamptown_5_025
@ 082   ----------------------------------------
	.byte	PATT
	 .word	zCamptown_5_026
@ 083   ----------------------------------------
	.byte	PATT
	 .word	zCamptown_5_025
@ 084   ----------------------------------------
	.byte	PATT
	 .word	zCamptown_5_028
@ 085   ----------------------------------------
	.byte	PATT
	 .word	zCamptown_5_028
@ 086   ----------------------------------------
	.byte	PATT
	 .word	zCamptown_5_030
@ 087   ----------------------------------------
	.byte	PATT
	 .word	zCamptown_5_031
@ 088   ----------------------------------------
	.byte	PATT
	 .word	zCamptown_5_008
@ 089   ----------------------------------------
	.byte	PATT
	 .word	zCamptown_5_009
@ 090   ----------------------------------------
	.byte	PATT
	 .word	zCamptown_5_018
@ 091   ----------------------------------------
	.byte	PATT
	 .word	zCamptown_5_019
@ 092   ----------------------------------------
	.byte	PATT
	 .word	zCamptown_5_008
@ 093   ----------------------------------------
	.byte	PATT
	 .word	zCamptown_5_009
@ 094   ----------------------------------------
	.byte	PATT
	 .word	zCamptown_5_022
@ 095   ----------------------------------------
	.byte		N32   , Dn4 , v096
	.byte	W48
@ 096   ----------------------------------------
	.byte	PATT
	 .word	zCamptown_5_008
@ 097   ----------------------------------------
	.byte	PATT
	 .word	zCamptown_5_009
@ 098   ----------------------------------------
	.byte	PATT
	 .word	zCamptown_5_018
@ 099   ----------------------------------------
	.byte	PATT
	 .word	zCamptown_5_019
@ 100   ----------------------------------------
	.byte	PATT
	 .word	zCamptown_5_008
@ 101   ----------------------------------------
	.byte	PATT
	 .word	zCamptown_5_009
@ 102   ----------------------------------------
	.byte	PATT
	 .word	zCamptown_5_022
@ 103   ----------------------------------------
	.byte		N32   , Dn4 , v096
	.byte	W48
@ 104   ----------------------------------------
	.byte	PATT
	 .word	zCamptown_5_024
@ 105   ----------------------------------------
	.byte	PATT
	 .word	zCamptown_5_025
@ 106   ----------------------------------------
	.byte	PATT
	 .word	zCamptown_5_026
@ 107   ----------------------------------------
	.byte	PATT
	 .word	zCamptown_5_025
@ 108   ----------------------------------------
	.byte	PATT
	 .word	zCamptown_5_028
@ 109   ----------------------------------------
	.byte	PATT
	 .word	zCamptown_5_028
@ 110   ----------------------------------------
	.byte	PATT
	 .word	zCamptown_5_030
@ 111   ----------------------------------------
	.byte	PATT
	 .word	zCamptown_5_031
@ 112   ----------------------------------------
	.byte	PATT
	 .word	zCamptown_5_004
@ 113   ----------------------------------------
	.byte	PATT
	 .word	zCamptown_5_001
@ 114   ----------------------------------------
	.byte	PATT
	 .word	zCamptown_5_010
@ 115   ----------------------------------------
	.byte	PATT
	 .word	zCamptown_5_003
@ 116   ----------------------------------------
	.byte	PATT
	 .word	zCamptown_5_004
@ 117   ----------------------------------------
	.byte	PATT
	 .word	zCamptown_5_001
@ 118   ----------------------------------------
	.byte	PATT
	 .word	zCamptown_5_006
@ 119   ----------------------------------------
	.byte		N32   , Dn4 , v116
	.byte	W44
	.byte	W03
	.byte	FINE

@**************** Track 6 (Midi-Chn.6) ****************@

zCamptown_6:
	.byte	KEYSH , zCamptown_key+0
@ 000   ----------------------------------------
	.byte		VOICE , 0
	.byte		VOL   , 101*zCamptown_mvl/mxv
	.byte		PAN   , c_v-60
	.byte		N11   , Dn3 , v084
	.byte		N11   , Fs3 
	.byte	W12
	.byte		        An3 
	.byte	W12
	.byte		        Dn3 
	.byte		N11   , Fs3 
	.byte	W12
	.byte		        An3 
	.byte	W12
@ 001   ----------------------------------------
zCamptown_6_001:
	.byte		N11   , Dn3 , v084
	.byte		N11   , Fs3 
	.byte	W12
	.byte		        An3 
	.byte	W12
	.byte		        Dn3 
	.byte		N11   , Fs3 
	.byte	W12
	.byte		        An3 
	.byte	W12
	.byte	PEND
@ 002   ----------------------------------------
zCamptown_6_002:
	.byte		N11   , Gn2 , v084
	.byte		N11   , Bn2 
	.byte	W12
	.byte		        En3 
	.byte	W12
	.byte		        Gs2 
	.byte		N11   , Bn2 
	.byte	W12
	.byte		        En3 
	.byte	W12
	.byte	PEND
@ 003   ----------------------------------------
zCamptown_6_003:
	.byte		N11   , An2 , v084
	.byte		N11   , Cs3 
	.byte	W12
	.byte		        En3 
	.byte	W12
	.byte		        An2 
	.byte		N11   , Cs3 
	.byte	W12
	.byte		        En3 
	.byte	W12
	.byte	PEND
@ 004   ----------------------------------------
	.byte	PATT
	 .word	zCamptown_6_001
@ 005   ----------------------------------------
	.byte	PATT
	 .word	zCamptown_6_001
@ 006   ----------------------------------------
zCamptown_6_006:
	.byte		N11   , An2 , v084
	.byte		N11   , Cs3 
	.byte		N11   , En3 
	.byte	W12
	.byte		        Gn3 
	.byte	W12
	.byte		        An2 
	.byte		N11   , Cs3 
	.byte		N11   , En3 
	.byte	W12
	.byte		        Gn3 
	.byte	W12
	.byte	PEND
@ 007   ----------------------------------------
zCamptown_6_007:
	.byte		N11   , Dn3 , v084
	.byte		N11   , Fs3 
	.byte	W12
	.byte		        An3 
	.byte	W12
	.byte		        Dn3 
	.byte		N11   , Fs3 
	.byte	W12
	.byte	PEND
zCamptown_6_B1:
	.byte	W12
@ 008   ----------------------------------------
	.byte		N44   , Dn1 , v080
	.byte		N44   , Dn2 
	.byte	W48
@ 009   ----------------------------------------
zCamptown_6_009:
	.byte		N11   , Dn1 , v080
	.byte		N11   , Dn2 
	.byte	W24
	.byte		N23   , Dn1 
	.byte		N23   , Dn2 
	.byte	W24
	.byte	PEND
@ 010   ----------------------------------------
zCamptown_6_010:
	.byte		N44   , An2 , v080
	.byte	W12
	.byte		N11   , Cs3 
	.byte		N11   , Gn3 
	.byte	W12
	.byte		        Cs3 
	.byte		N11   , Gn3 
	.byte	W12
	.byte		        Cs3 
	.byte		N11   , Gn3 
	.byte	W12
	.byte	PEND
@ 011   ----------------------------------------
zCamptown_6_011:
	.byte		N11   , An2 , v080
	.byte	W12
	.byte		        Cs3 
	.byte		N11   , Gn3 
	.byte	W12
	.byte		        Cs3 
	.byte		N11   , Gn3 
	.byte	W24
	.byte	PEND
@ 012   ----------------------------------------
	.byte		N44   , Dn1 
	.byte		N44   , Dn2 
	.byte	W48
@ 013   ----------------------------------------
	.byte	PATT
	 .word	zCamptown_6_009
@ 014   ----------------------------------------
zCamptown_6_014:
	.byte		N44   , An2 , v080
	.byte	W12
	.byte		N11   , Cs3 
	.byte		N11   , An3 
	.byte	W12
	.byte		        Cs3 
	.byte		N11   , An3 
	.byte	W12
	.byte		        Cs3 
	.byte		N11   , An3 
	.byte	W12
	.byte	PEND
@ 015   ----------------------------------------
zCamptown_6_015:
	.byte		N11   , Dn3 , v080
	.byte		N11   , Fs3 
	.byte	W12
	.byte		        Dn3 
	.byte		N11   , Fs3 
	.byte	W12
	.byte		        Dn3 
	.byte		N11   , Fs3 
	.byte	W24
	.byte	PEND
@ 016   ----------------------------------------
	.byte		N44   , Dn1 
	.byte		N44   , Dn2 
	.byte	W48
@ 017   ----------------------------------------
	.byte	PATT
	 .word	zCamptown_6_009
@ 018   ----------------------------------------
	.byte	PATT
	 .word	zCamptown_6_014
@ 019   ----------------------------------------
zCamptown_6_019:
	.byte		N11   , An2 , v080
	.byte	W12
	.byte		        Cs3 
	.byte		N11   , An3 
	.byte	W12
	.byte		        Cs3 
	.byte		N11   , An3 
	.byte	W24
	.byte	PEND
@ 020   ----------------------------------------
	.byte		N44   , Dn1 
	.byte		N44   , Dn2 
	.byte	W48
@ 021   ----------------------------------------
	.byte	PATT
	 .word	zCamptown_6_009
@ 022   ----------------------------------------
	.byte	PATT
	 .word	zCamptown_6_010
@ 023   ----------------------------------------
	.byte	PATT
	 .word	zCamptown_6_015
@ 024   ----------------------------------------
zCamptown_6_024:
	.byte		N23   , Dn1 , v080
	.byte		N23   , Dn2 
	.byte	W24
	.byte		        Dn1 
	.byte		N23   , Dn2 
	.byte	W24
	.byte	PEND
@ 025   ----------------------------------------
	.byte		N32   , Dn1 
	.byte		N32   , Dn2 
	.byte	W48
@ 026   ----------------------------------------
	.byte	PATT
	 .word	zCamptown_6_024
@ 027   ----------------------------------------
	.byte		N32   , Dn1 , v080
	.byte		N32   , Dn2 
	.byte	W48
@ 028   ----------------------------------------
	.byte	PATT
	 .word	zCamptown_6_024
@ 029   ----------------------------------------
	.byte	PATT
	 .word	zCamptown_6_024
@ 030   ----------------------------------------
zCamptown_6_030:
	.byte		N23   , Gn0 , v080
	.byte		N23   , Gn1 
	.byte	W24
	.byte		        An0 
	.byte		N23   , An1 
	.byte	W24
	.byte	PEND
@ 031   ----------------------------------------
	.byte		N44   , Dn1 
	.byte		N44   , Dn2 
	.byte	W48
@ 032   ----------------------------------------
	.byte		        Dn1 
	.byte		N44   , Dn2 
	.byte	W48
@ 033   ----------------------------------------
	.byte	PATT
	 .word	zCamptown_6_009
@ 034   ----------------------------------------
	.byte	PATT
	 .word	zCamptown_6_010
@ 035   ----------------------------------------
	.byte	PATT
	 .word	zCamptown_6_011
@ 036   ----------------------------------------
	.byte		N44   , Dn1 , v080
	.byte		N44   , Dn2 
	.byte	W48
@ 037   ----------------------------------------
	.byte	PATT
	 .word	zCamptown_6_009
@ 038   ----------------------------------------
	.byte	PATT
	 .word	zCamptown_6_014
@ 039   ----------------------------------------
	.byte	PATT
	 .word	zCamptown_6_015
@ 040   ----------------------------------------
	.byte		N44   , Dn1 , v080
	.byte		N44   , Dn2 
	.byte	W48
@ 041   ----------------------------------------
	.byte	PATT
	 .word	zCamptown_6_009
@ 042   ----------------------------------------
	.byte	PATT
	 .word	zCamptown_6_014
@ 043   ----------------------------------------
	.byte	PATT
	 .word	zCamptown_6_019
@ 044   ----------------------------------------
	.byte		N44   , Dn1 , v080
	.byte		N44   , Dn2 
	.byte	W48
@ 045   ----------------------------------------
	.byte	PATT
	 .word	zCamptown_6_009
@ 046   ----------------------------------------
	.byte	PATT
	 .word	zCamptown_6_010
@ 047   ----------------------------------------
	.byte	PATT
	 .word	zCamptown_6_015
@ 048   ----------------------------------------
	.byte	PATT
	 .word	zCamptown_6_024
@ 049   ----------------------------------------
	.byte		N32   , Dn1 , v080
	.byte		N32   , Dn2 
	.byte	W48
@ 050   ----------------------------------------
	.byte	PATT
	 .word	zCamptown_6_024
@ 051   ----------------------------------------
	.byte		N32   , Dn1 , v080
	.byte		N32   , Dn2 
	.byte	W48
@ 052   ----------------------------------------
	.byte	PATT
	 .word	zCamptown_6_024
@ 053   ----------------------------------------
	.byte	PATT
	 .word	zCamptown_6_024
@ 054   ----------------------------------------
	.byte	PATT
	 .word	zCamptown_6_030
@ 055   ----------------------------------------
	.byte		N44   , Dn1 , v080
	.byte		N44   , Dn2 
	.byte	W48
@ 056   ----------------------------------------
	.byte	PATT
	 .word	zCamptown_6_001
@ 057   ----------------------------------------
	.byte	PATT
	 .word	zCamptown_6_001
@ 058   ----------------------------------------
	.byte	PATT
	 .word	zCamptown_6_002
@ 059   ----------------------------------------
	.byte	PATT
	 .word	zCamptown_6_003
@ 060   ----------------------------------------
	.byte	PATT
	 .word	zCamptown_6_001
@ 061   ----------------------------------------
	.byte	PATT
	 .word	zCamptown_6_001
@ 062   ----------------------------------------
	.byte	PATT
	 .word	zCamptown_6_006
@ 063   ----------------------------------------
	.byte	PATT
	 .word	zCamptown_6_007
	.byte	GOTO
	 .word	zCamptown_6_B1
zCamptown_6_B2:
	.byte	W12
@ 064   ----------------------------------------
	.byte		N44   , Dn1 , v080
	.byte		N44   , Dn2 
	.byte	W48
@ 065   ----------------------------------------
	.byte	PATT
	 .word	zCamptown_6_009
@ 066   ----------------------------------------
	.byte	PATT
	 .word	zCamptown_6_010
@ 067   ----------------------------------------
	.byte	PATT
	 .word	zCamptown_6_011
@ 068   ----------------------------------------
	.byte		N44   , Dn1 , v080
	.byte		N44   , Dn2 
	.byte	W48
@ 069   ----------------------------------------
	.byte	PATT
	 .word	zCamptown_6_009
@ 070   ----------------------------------------
	.byte	PATT
	 .word	zCamptown_6_014
@ 071   ----------------------------------------
	.byte	PATT
	 .word	zCamptown_6_015
@ 072   ----------------------------------------
	.byte		N44   , Dn1 , v080
	.byte		N44   , Dn2 
	.byte	W48
@ 073   ----------------------------------------
	.byte	PATT
	 .word	zCamptown_6_009
@ 074   ----------------------------------------
	.byte	PATT
	 .word	zCamptown_6_014
@ 075   ----------------------------------------
	.byte	PATT
	 .word	zCamptown_6_019
@ 076   ----------------------------------------
	.byte		N44   , Dn1 , v080
	.byte		N44   , Dn2 
	.byte	W48
@ 077   ----------------------------------------
	.byte	PATT
	 .word	zCamptown_6_009
@ 078   ----------------------------------------
	.byte	PATT
	 .word	zCamptown_6_010
@ 079   ----------------------------------------
	.byte	PATT
	 .word	zCamptown_6_015
@ 080   ----------------------------------------
	.byte	PATT
	 .word	zCamptown_6_024
@ 081   ----------------------------------------
	.byte		N32   , Dn1 , v080
	.byte		N32   , Dn2 
	.byte	W48
@ 082   ----------------------------------------
	.byte	PATT
	 .word	zCamptown_6_024
@ 083   ----------------------------------------
	.byte		N32   , Dn1 , v080
	.byte		N32   , Dn2 
	.byte	W48
@ 084   ----------------------------------------
	.byte	PATT
	 .word	zCamptown_6_024
@ 085   ----------------------------------------
	.byte	PATT
	 .word	zCamptown_6_024
@ 086   ----------------------------------------
	.byte	PATT
	 .word	zCamptown_6_030
@ 087   ----------------------------------------
	.byte		N44   , Dn1 , v080
	.byte		N44   , Dn2 
	.byte	W48
@ 088   ----------------------------------------
	.byte		        Dn1 
	.byte		N44   , Dn2 
	.byte	W48
@ 089   ----------------------------------------
	.byte	PATT
	 .word	zCamptown_6_009
@ 090   ----------------------------------------
	.byte	PATT
	 .word	zCamptown_6_010
@ 091   ----------------------------------------
	.byte	PATT
	 .word	zCamptown_6_011
@ 092   ----------------------------------------
	.byte		N44   , Dn1 , v080
	.byte		N44   , Dn2 
	.byte	W48
@ 093   ----------------------------------------
	.byte	PATT
	 .word	zCamptown_6_009
@ 094   ----------------------------------------
	.byte	PATT
	 .word	zCamptown_6_014
@ 095   ----------------------------------------
	.byte	PATT
	 .word	zCamptown_6_015
@ 096   ----------------------------------------
	.byte		N44   , Dn1 , v080
	.byte		N44   , Dn2 
	.byte	W48
@ 097   ----------------------------------------
	.byte	PATT
	 .word	zCamptown_6_009
@ 098   ----------------------------------------
	.byte	PATT
	 .word	zCamptown_6_014
@ 099   ----------------------------------------
	.byte	PATT
	 .word	zCamptown_6_019
@ 100   ----------------------------------------
	.byte		N44   , Dn1 , v080
	.byte		N44   , Dn2 
	.byte	W48
@ 101   ----------------------------------------
	.byte	PATT
	 .word	zCamptown_6_009
@ 102   ----------------------------------------
	.byte	PATT
	 .word	zCamptown_6_010
@ 103   ----------------------------------------
	.byte	PATT
	 .word	zCamptown_6_015
@ 104   ----------------------------------------
	.byte	PATT
	 .word	zCamptown_6_024
@ 105   ----------------------------------------
	.byte		N32   , Dn1 , v080
	.byte		N32   , Dn2 
	.byte	W48
@ 106   ----------------------------------------
	.byte	PATT
	 .word	zCamptown_6_024
@ 107   ----------------------------------------
	.byte		N32   , Dn1 , v080
	.byte		N32   , Dn2 
	.byte	W48
@ 108   ----------------------------------------
	.byte	PATT
	 .word	zCamptown_6_024
@ 109   ----------------------------------------
	.byte	PATT
	 .word	zCamptown_6_024
@ 110   ----------------------------------------
	.byte	PATT
	 .word	zCamptown_6_030
@ 111   ----------------------------------------
	.byte		N44   , Dn1 , v080
	.byte		N44   , Dn2 
	.byte	W48
@ 112   ----------------------------------------
	.byte	PATT
	 .word	zCamptown_6_001
@ 113   ----------------------------------------
	.byte	PATT
	 .word	zCamptown_6_001
@ 114   ----------------------------------------
	.byte	PATT
	 .word	zCamptown_6_002
@ 115   ----------------------------------------
	.byte	PATT
	 .word	zCamptown_6_003
@ 116   ----------------------------------------
	.byte	PATT
	 .word	zCamptown_6_001
@ 117   ----------------------------------------
	.byte	PATT
	 .word	zCamptown_6_001
@ 118   ----------------------------------------
	.byte	PATT
	 .word	zCamptown_6_006
@ 119   ----------------------------------------
	.byte		N11   , Dn3 , v084
	.byte		N11   , Fs3 
	.byte	W12
	.byte		        An3 
	.byte	W12
	.byte		        Dn3 
	.byte		N11   , Fs3 
	.byte	W23
	.byte	FINE

@******************************************************@
	.align	2

zCamptown:
	.byte	6	@ NumTrks
	.byte	0	@ NumBlks
	.byte	zCamptown_pri	@ Priority
	.byte	zCamptown_rev	@ Reverb.

	.word	zCamptown_grp

	.word	zCamptown_1
	.word	zCamptown_2
	.word	zCamptown_3
	.word	zCamptown_4
	.word	zCamptown_5
	.word	zCamptown_6

	.end
